<svg width="23" height="20" viewBox="0 0 23 20" fill="none" xmlns="http://www.w3.org/2000/svg">
<path d="M11.3372 19.3025C8.65647 19.3025 5.96878 19.3025 3.28808 19.3025C1.67547 19.3025 0.328136 18.1715 0.0488957 16.5938C0.0209717 16.4263 0.0139907 16.2448 0.0139907 16.0703C0.0139907 11.8049 0.0279529 7.53948 2.89439e-05 3.27409C-0.00695206 1.68242 1.24963 0.174525 2.95997 0.034905C3.1694 0.020943 3.37883 0 3.58826 0C8.78911 0 13.99 0 19.1908 0C20.1821 0 21.0477 0.293202 21.7458 1.01923C22.3322 1.63355 22.6394 2.37354 22.6394 3.22522C22.6394 7.54646 22.6394 11.8607 22.6324 16.182C22.6324 17.6968 21.4875 19.0162 19.9797 19.2466C19.7493 19.2815 19.5119 19.3025 19.2746 19.3025C16.6358 19.3094 13.983 19.3025 11.3372 19.3025ZM13.0475 11.8677C12.9149 11.7211 12.8521 11.6583 12.7962 11.5954C11.784 10.5972 10.7717 9.5919 9.75249 8.59361C8.81005 7.67212 7.42083 7.60929 6.42953 8.47493C4.89371 9.82227 3.37185 11.1905 1.84999 12.5518C1.7732 12.6216 1.71037 12.7403 1.71037 12.8381C1.70339 13.9829 1.68943 15.1278 1.71735 16.2727C1.7383 17.0336 2.40149 17.6619 3.15544 17.6689C4.40504 17.6829 5.65464 17.6759 6.90424 17.6689C7.01593 17.6689 7.14159 17.6061 7.22536 17.5363C7.48366 17.3129 7.72101 17.0685 7.96535 16.8312C9.564 15.2395 11.1626 13.6479 12.7613 12.0562C12.8311 11.9864 12.9288 11.9445 13.0475 11.8677ZM9.47325 17.62C9.48023 17.641 9.49419 17.6619 9.50117 17.6829C9.57796 17.6829 9.65475 17.6829 9.73154 17.6829C12.9219 17.6829 16.1122 17.6829 19.3025 17.6829C20.2589 17.6829 20.936 17.0057 20.95 16.0493C20.957 15.3093 20.95 14.5624 20.957 13.8224C20.957 13.6618 20.9151 13.5431 20.7825 13.4384C20.0495 12.8241 19.3374 12.1958 18.5974 11.5954C17.6061 10.7926 16.2588 10.8834 15.3582 11.7769C13.4594 13.6618 11.5606 15.5467 9.66173 17.4316C9.5989 17.4874 9.53608 17.5502 9.47325 17.62ZM15.3303 8.03513C16.6776 8.04211 17.7388 6.99496 17.7457 5.65461C17.7527 4.34916 16.6637 3.26013 15.3652 3.25315C14.0388 3.25315 12.9358 4.32124 12.9498 5.64763C12.9637 7.11364 14.1575 8.07004 15.3303 8.03513Z" fill="url(#paint0_linear_155_172)"/>
<defs>
<linearGradient id="paint0_linear_155_172" x1="11.3242" y1="19.1461" x2="11.3242" y2="-2.08662" gradientUnits="userSpaceOnUse">
<stop offset="4.1024e-07" stop-color="#00BF06"/>
<stop offset="1" stop-color="#00FF09"/>
</linearGradient>
</defs>
</svg>
