<svg width="22" height="22" viewBox="0 0 22 22" fill="none" xmlns="http://www.w3.org/2000/svg">
<path d="M10.4152 4.0332H4.33792C3.87741 4.0332 3.43576 4.21614 3.11013 4.54177C2.7845 4.8674 2.60156 5.30905 2.60156 5.76956V17.9241C2.60156 18.3846 2.7845 18.8262 3.11013 19.1519C3.43576 19.4775 3.87741 19.6604 4.33792 19.6604H16.4924C16.9529 19.6604 17.3946 19.4775 17.7202 19.1519C18.0459 18.8262 18.2288 18.3846 18.2288 17.9241V11.8468" stroke="#111827" stroke-width="1.5" stroke-linecap="round" stroke-linejoin="round"/>
<path d="M16.9264 2.73082C17.2718 2.38544 17.7403 2.19141 18.2287 2.19141C18.7171 2.19141 19.1856 2.38544 19.531 2.73082C19.8763 3.07621 20.0704 3.54465 20.0704 4.03309C20.0704 4.52154 19.8763 4.98998 19.531 5.33536L11.2833 13.5831L7.81055 14.4512L8.67873 10.9785L16.9264 2.73082Z" stroke="#111827" stroke-width="1.5" stroke-linecap="round" stroke-linejoin="round"/>
</svg>
