<svg width="22" height="22" viewBox="0 0 22 22" fill="none" xmlns="http://www.w3.org/2000/svg">
<path d="M16.4924 3.43652C15.8016 3.43652 15.1392 3.71093 14.6507 4.19937C14.1623 4.68782 13.8879 5.35029 13.8879 6.04106V16.4592C13.8879 17.15 14.1623 17.8125 14.6507 18.3009C15.1392 18.7893 15.8016 19.0637 16.4924 19.0637C17.1832 19.0637 17.8457 18.7893 18.3341 18.3009C18.8225 17.8125 19.097 17.15 19.097 16.4592C19.097 15.7684 18.8225 15.106 18.3341 14.6175C17.8457 14.1291 17.1832 13.8547 16.4924 13.8547H6.07426C5.3835 13.8547 4.72102 14.1291 4.23258 14.6175C3.74413 15.106 3.46973 15.7684 3.46973 16.4592C3.46973 17.15 3.74413 17.8125 4.23258 18.3009C4.72102 18.7893 5.3835 19.0637 6.07426 19.0637C6.76503 19.0637 7.42751 18.7893 7.91595 18.3009C8.4044 17.8125 8.6788 17.15 8.6788 16.4592V6.04106C8.6788 5.35029 8.4044 4.68782 7.91595 4.19937C7.42751 3.71093 6.76503 3.43652 6.07426 3.43652C5.3835 3.43652 4.72102 3.71093 4.23258 4.19937C3.74413 4.68782 3.46973 5.35029 3.46973 6.04106C3.46973 6.73183 3.74413 7.3943 4.23258 7.88275C4.72102 8.37119 5.3835 8.6456 6.07426 8.6456H16.4924C17.1832 8.6456 17.8457 8.37119 18.3341 7.88275C18.8225 7.3943 19.097 6.73183 19.097 6.04106C19.097 5.35029 18.8225 4.68782 18.3341 4.19937C17.8457 3.71093 17.1832 3.43652 16.4924 3.43652Z" stroke="#111827" stroke-width="1.5" stroke-linecap="round" stroke-linejoin="round"/>
</svg>
