<svg width="81" height="47" viewBox="0 0 81 47" fill="none" xmlns="http://www.w3.org/2000/svg">
<g clip-path="url(#clip0_319_2560)">
<path d="M15.0321 40.7402L34.8095 23.5011L14.8674 6.12051C14.8048 6.73375 14.7329 7.17482 14.7167 7.62059C14.6842 8.47205 14.7353 9.33058 14.6541 10.1773C14.6164 10.6079 14.4186 11.0075 14.101 11.2947C13.7833 11.5818 13.3699 11.7347 12.9451 11.7222C12.0176 11.7222 11.2037 11.076 11.1874 10.1278C11.1596 8.63244 11.1086 7.10642 11.3613 5.64644C11.9063 2.50949 14.8187 0.115498 17.9584 0.0117188C18.1625 0.0117188 18.3642 0.0117188 18.566 0.0117188C36.738 0.0117188 54.9099 0.0117188 73.0819 0.0117188C76.7526 0.0117188 79.5747 2.24061 80.3213 5.73371C80.4444 6.3975 80.498 7.07267 80.4813 7.74795C80.4906 18.2532 80.4906 28.7584 80.4813 39.2637C80.4813 44.0186 77.5155 47.0046 72.8153 47.007H18.835C14.1208 47.007 11.1619 43.9809 11.1596 39.1717C11.1596 38.4948 11.1411 37.8179 11.1596 37.1409C11.1967 36.056 11.8854 35.3225 12.864 35.2894C13.8912 35.2541 14.6495 35.9569 14.6935 37.0938C14.7422 38.2731 14.6935 39.476 14.6935 40.6694L15.0321 40.7402ZM17.7822 3.67228L17.6732 3.86568C17.8773 4.02135 18.0929 4.16523 18.2877 4.33741C26.971 11.885 35.6551 19.4388 44.3399 26.9989C45.4622 27.9754 46.2413 27.9565 47.4007 26.9494C56.1057 19.3751 64.8091 11.7993 73.5109 4.22184C73.6864 4.04925 73.8528 3.86738 74.0094 3.677L17.7822 3.67228ZM17.5666 43.2969H74.1115L54.1068 25.8432C52.4257 27.3291 50.8303 28.7773 49.1909 30.1712C48.3329 30.9337 47.2487 31.3821 46.1111 31.4449C44.9735 31.5077 43.8479 31.1814 42.9138 30.518C42.6557 30.3282 42.408 30.1243 42.1718 29.9071L37.5619 25.8456L17.5666 43.2969ZM76.8454 6.0757L56.8639 23.4964L76.8454 40.9147V6.0757Z" fill="#81AE00"/>
<path d="M10.2002 29.8439C7.64945 29.8439 5.11263 29.8439 2.56654 29.8439C1.71552 29.8439 1.02915 29.5585 0.658138 28.7401C0.55522 28.5117 0.501626 28.2636 0.500982 28.0124C0.500339 27.7612 0.552654 27.5128 0.654402 27.2839C0.75615 27.055 0.904979 26.8509 1.09083 26.6855C1.27667 26.5201 1.49523 26.3971 1.73176 26.3249C2.09498 26.229 2.46975 26.1861 2.84482 26.1975C7.79168 26.1881 12.7385 26.1881 17.6854 26.1975C17.9176 26.1907 18.15 26.1994 18.381 26.2235C19.4292 26.3626 20.0831 27.115 20.039 28.1103C20.0227 28.5729 19.8293 29.0107 19.5 29.3301C19.1707 29.6496 18.7317 29.8256 18.2767 29.8203C17.21 29.8675 16.1387 29.8368 15.0697 29.8368L10.2002 29.8439Z" fill="#81AE00"/>
<path d="M12.9246 17.1564C14.6011 17.1564 16.28 17.1564 17.9565 17.1564C19.2226 17.1564 19.9994 17.838 20.0272 18.9159C20.0574 20.0339 19.2759 20.7887 17.9843 20.8028C14.6282 20.8217 11.2736 20.8217 7.92054 20.8028C6.63358 20.8028 5.80808 20.0363 5.83358 18.9513C5.85909 17.8663 6.68228 17.1682 7.98315 17.1611C9.62721 17.1493 11.2759 17.1564 12.9246 17.1564Z" fill="#81AE00"/>
</g>
<defs>
<clipPath id="clip0_319_2560">
<rect width="80" height="47" fill="white" transform="translate(0.5)"/>
</clipPath>
</defs>
</svg>
