<svg width="37" height="37" viewBox="0 0 37 37" fill="none" xmlns="http://www.w3.org/2000/svg">
<rect width="37" height="37" rx="6" fill="#D10202" fill-opacity="0.1"/>
<path d="M27.8117 13.41V28.0068C27.8117 29.765 26.3855 31.1912 24.63 31.1912H12.1844C10.4262 31.1885 9 29.765 9 28.0068V9.18177C9 7.42356 10.4262 6 12.1844 6H20.7577L20.7603 6.00266L27.7533 13.3489L27.8117 13.41Z" fill="#D10202"/>
<path d="M27.7513 13.3486H20.7556V6.00238L27.7513 13.3486Z" fill="#FF5B5B"/>
<path d="M21.842 19.0435H14.9393C14.6604 19.0435 14.4347 18.8178 14.4347 18.5389C14.4347 18.26 14.6604 18.0343 14.9393 18.0343H21.842C22.1209 18.0343 22.3466 18.26 22.3466 18.5389C22.3466 18.8178 22.1209 19.0435 21.842 19.0435Z" fill="white"/>
<path d="M21.842 21.3004H14.9393C14.6604 21.3004 14.4347 21.0746 14.4347 20.7958C14.4347 20.5169 14.6604 20.2911 14.9393 20.2911H21.842C22.1209 20.2911 22.3466 20.5169 22.3466 20.7958C22.3466 21.0746 22.1209 21.3004 21.842 21.3004Z" fill="white"/>
<path d="M21.842 23.5557H14.9393C14.6604 23.5557 14.4347 23.3299 14.4347 23.0511C14.4347 22.7722 14.6604 22.5464 14.9393 22.5464H21.842C22.1209 22.5464 22.3466 22.7722 22.3466 23.0511C22.3466 23.3299 22.1209 23.5557 21.842 23.5557Z" fill="white"/>
<path d="M19.5767 25.8132H14.7855C14.5066 25.8132 14.2809 25.5875 14.2809 25.3086C14.2809 25.0297 14.5066 24.804 14.7855 24.804H19.5767C19.8556 24.804 20.0814 25.0297 20.0814 25.3086C20.0814 25.5875 19.8556 25.8132 19.5767 25.8132Z" fill="white"/>
</svg>
