<svg width="21" height="18" viewBox="0 0 21 18" fill="none" xmlns="http://www.w3.org/2000/svg">
<path d="M10.4945 18.0016C7.76967 18.0016 5.04482 18.0016 2.31996 18.0016C1.11621 18.0016 0.218864 17.2355 0.0218864 16.0537C0 15.9114 0 15.7692 0 15.6269C0 12.2017 0 8.78739 0 5.36217C0 3.9505 0.963002 2.99844 2.36373 2.99844C3.10787 2.99844 3.85201 2.99844 4.5852 2.99844C4.72746 2.99844 4.80406 2.95466 4.86972 2.82335C5.12142 2.30902 5.37311 1.80563 5.6248 1.2913C6.07348 0.448671 6.78478 0 7.74779 0C9.58624 0 11.4138 0 13.2522 0C14.2152 0 14.9265 0.437728 15.3643 1.30224C15.6269 1.80563 15.8786 2.31996 16.1193 2.83429C16.185 2.96561 16.2507 3.00938 16.4039 3.00938C17.1589 2.99844 17.914 2.99844 18.68 3.00938C20.0261 3.00938 21 3.98332 21 5.32934C21 8.77645 21 12.2345 21 15.6816C21 17.0276 20.0261 18.0016 18.68 18.0016C15.9552 18.0016 13.2194 18.0016 10.4945 18.0016Z" fill="#126098"/>
<path d="M15.7472 9.76134C15.7472 12.6503 13.3835 15.0031 10.4836 14.9922C7.58362 14.9922 5.23083 12.6285 5.25271 9.70662C5.26366 6.8395 7.59456 4.48671 10.5383 4.49766C13.4163 4.51954 15.7363 6.85045 15.7472 9.76134Z" fill="#4397D0"/>
<path d="M14.248 9.76134C14.2371 11.8296 12.5737 13.5039 10.4726 13.493C8.42625 13.482 6.741 11.8187 6.75195 9.70662C6.76289 7.69308 8.41531 5.97499 10.5492 5.99688C12.5847 6.02971 14.248 7.67119 14.248 9.76134Z" fill="#60C2EE"/>
</svg>
